<svg id="Nav_Banner" data-name="Nav+Banner" xmlns="http://www.w3.org/2000/svg" viewBox="0 0 1920 275.17"><defs><style>.cls-1{opacity:0.4;}.cls-2{fill:#4193a3;}</style></defs><g class="cls-1"><path class="cls-2" d="M1919.85,150.35c-62.69,8.83-200.12,108.16-383.46,92.68-38.77-3.27-192.25-18.34-260.5-28.49C1117.61,191,905.68,225.82,648.42,258.11,319,299.47,219.5,198.93,0,215.49V96.1H1920Z"/></g><g class="cls-1"><path class="cls-2" d="M.15,36.71C101,61.66,249,90.38,335.12,56.4,371.32,42.13,449,6.78,517.21,16.93c158.28,23.53,490.29,114,628,32.13,185.47-110.3,335.76,37.25,466.89,35.12,116.74-1.9,172-52.8,307.93-63.79V139.77H0Z"/></g><path class="cls-2" d="M1920,74.08c-157.48-17.36-211.74,21.45-325.3,21.45-144.84,0-257.7-89.43-419-41.55C892.51,138,657.22,72,468.76,38.83,363.6,20.33,239,130.89.16,73.93l0,22.17H0v65.7c157.42,17.36,203.56,71.51,315.57,90,108.27,17.88,260.64-5.45,356.72-30.55,130.61-34.11,339.71-42,515.22-22.58,106.09,11.76,259,37.31,328.9,31.78,138-10.91,256-63.8,403.59-80.74l-.12-9.95h.12Z"/></svg>