<svg id="Nav_Banner" data-name="Nav+Banner" xmlns="http://www.w3.org/2000/svg" xmlns:xlink="http://www.w3.org/1999/xlink" viewBox="0 0 1920.21 141.74"><defs><style>.cls-1,.cls-4,.cls-5,.cls-6,.cls-7{fill:none;}.cls-2{clip-path:url(#clip-path);}.cls-3{fill:#c0d9de;}.cls-4,.cls-5,.cls-6,.cls-7{stroke:#4193a3;stroke-miterlimit:10;}.cls-4,.cls-7{stroke-width:2px;}.cls-4{opacity:0.46;}.cls-5{stroke-width:1.5px;opacity:0.85;}.cls-6{stroke-width:0.75px;}.cls-7{opacity:0.67;}</style><clipPath id="clip-path"><rect class="cls-1" width="1920" height="141.74"/></clipPath></defs><g class="cls-2"><path class="cls-3" d="M1920-786.23c-157.4-17.36-202.9-71.5-314.9-90-108.25-17.88-260.59,5.45-356.66,30.54-130.58,34.11-339.65,42-515.13,22.58-106.07-11.75-258.94-37.3-328.84-31.77C266.52-844,147.54-791.09,0-774.15V21.28c157.4,17.36,202.9,71.5,314.9,90,108.25,17.88,260.59-5.45,356.66-30.54,130.58-34.11,339.65-42,515.13-22.58,106.07,11.76,258.94,37.3,328.84,31.77C1653.48,79,1772.46,26.14,1920,9.2Z"/><path class="cls-4" d="M0,32.89C117.23,61,364.58,159.09,597,85.39c214-67.9,422.05-71,532.78-58.79,252.47,27.9,229.71,88.41,446.7,53.61,78.51-12.6,218.11-77,343.57-54"/><path class="cls-5" d="M0,20.1c117.23,28.12,302.78,168.41,535.15,94.71,214.05-67.9,473.94-79.52,584.66-67.29,252.48,27.9,214,85.25,431,50.44C1629.3,85.37,1794.54-2.85,1920,20.1"/><path class="cls-6" d="M0,58.31c98.87,1.89,278.82,124.91,511.19,51.2,214.05-67.89,485.67-44.3,596.4-32.06,252.48,27.89,295.86,73.43,443.19,29.81C1627,84.69,1794.54,31,1920,53.93"/><path class="cls-6" d="M1920,46C1780.72,5.74,1584.07,152.1,1351.7,84.3c-214-62.46-428.57-32-539.3-20.73-252.48,25.66-430.88,60.1-578.21,20C157.94,62.78,129.37,48.34,0,41.93"/><path class="cls-7" d="M0,83.72C87.36,77,234,174,467.11,102.51,660.1,43.34,923,38.08,1033.9,48.93c293.49,28.71,377.52,122.76,565.05,57.12,75-26.26,186.55-97.89,321.26-89"/></g></svg>