<svg id="Nav_Banner" data-name="Nav+Banner" xmlns="http://www.w3.org/2000/svg" xmlns:xlink="http://www.w3.org/1999/xlink" viewBox="0 0 1920.21 141.74"><defs><style>.cls-1{fill:none;}.cls-2{clip-path:url(#clip-path);}.cls-3{opacity:0.5;}.cls-4{fill:#4193a3;}.cls-5{fill:#c0d9de;}</style><clipPath id="clip-path"><rect class="cls-1" width="1920" height="141.74"/></clipPath></defs><g class="cls-2"><g class="cls-3"><path class="cls-4" d="M0,129.67C62.69,120.84,200.35,21.52,383.67,37c38.77,3.27,192.22,18.34,260.47,28.48C802.41,89,1014.32,54.21,1271.55,21.92,1601-19.43,1700.52,81.1,1920,64.54V183.91H0Z"/></g><path class="cls-5" d="M1920,118.25c-157.4-17.35-202.9-71.5-314.9-90-108.25-17.88-260.59,5.46-356.66,30.55-130.58,34.1-339.65,42-515.13,22.58C627.24,69.62,474.37,44.07,404.47,49.6,266.52,60.51,147.54,113.4,0,130.34V925.77c157.4,17.35,202.9,71.5,314.9,90,108.25,17.89,260.59-5.45,356.66-30.54,130.58-34.11,339.65-42,515.13-22.58,106.07,11.76,258.94,37.31,328.84,31.78,138-10.91,256.93-63.8,404.47-80.74Z"/></g></svg>