<svg id="Nav_Banner" data-name="Nav+Banner" xmlns="http://www.w3.org/2000/svg" viewBox="0 0 1920.21 141.74"><defs><style>.cls-1,.cls-2,.cls-3,.cls-4{fill:none;stroke:#4193a3;stroke-miterlimit:10;}.cls-1,.cls-4{stroke-width:2px;}.cls-1{opacity:0.46;}.cls-2{stroke-width:1.5px;opacity:0.85;}.cls-3{stroke-width:0.75px;}.cls-4{opacity:0.67;}.cls-5{opacity:0.3;}.cls-6{fill:#4193a3;}</style></defs><path class="cls-1" d="M1920,110c-117.23-28.12-364.58-126.2-596.95-52.49-214,67.89-422,71-532.78,58.78-252.48-27.9-229.71-88.4-446.71-53.6-78.51,12.59-218.1,77-343.56,54"/><path class="cls-2" d="M1920,122.83c-117.23-28.12-302.79-168.41-535.15-94.7-214,67.89-473.94,79.52-584.66,67.28-252.48-27.89-214-85.24-431-50.44C290.72,57.56,125.48,145.79,0,122.83"/><path class="cls-3" d="M1920,84.62c-98.87-1.89-278.83-124.9-511.19-51.2-214,67.9-485.68,44.3-596.4,32.07C560,37.59,516.57-7.95,369.23,35.67,293,58.24,125.48,112,0,89"/><path class="cls-3" d="M0,97C139.3,137.19,336-9.17,568.32,58.63c214,62.46,428.57,32,539.3,20.74,252.48-25.67,430.87-60.11,578.21-20C1762.08,80.15,1790.64,94.59,1920,101"/><path class="cls-4" d="M1920,59.21c-87.36,6.72-234-90.23-467.11-18.78C1259.91,99.59,997,104.85,886.12,94,592.63,65.29,508.6-28.75,321.07,36.88,246,63.15,135.15,134.77.44,125.86"/><g class="cls-5"><path class="cls-6" d="M1920.23,141.74V95.35c-173.93-30.91-224.68-68.46-363.08-68.84-152.21-.43-263.32,43-369.41,55.3-175.51,20.33-384.61,33.91-515.21-1.74C576.44,53.84,451.32,32.61,343.05,51.3,231,70.63,148.6,148.07.23,108.87l0,32.87Z"/></g></svg>